<svg xmlns="http://www.w3.org/2000/svg" width="129" height="128" viewBox="0 0 129 128" fill="none">
<circle cx="9.5998" cy="9.5998" r="9.5998" transform="matrix(-1 0 0 1 35.2354 26.5625)" fill="black"/>
<path d="M24.0357 34.7227L41.9553 52.6423" stroke="black" stroke-width="4.7999"/>
<circle cx="104.033" cy="36.1623" r="9.5998" fill="black"/>
<path d="M105.793 34.7227L87.8738 52.6423" stroke="black" stroke-width="4.7999"/>
<path fill-rule="evenodd" clip-rule="evenodd" d="M28.3604 93.4472C23.1864 90.9841 20.1752 85.4527 21.1839 79.8118C25.5132 55.6011 43.5552 37.4424 65.1547 37.4424C86.8066 37.4424 104.884 55.6893 109.157 79.9881C110.15 85.6392 107.115 91.1679 101.923 93.611C90.8141 98.8388 78.4057 101.761 65.3148 101.761C52.0878 101.761 39.5576 98.7777 28.3604 93.4472Z" fill="#FFDF6F"/>
<path d="M109.157 79.9881L111.52 79.5724L109.157 79.9881ZM101.923 93.611L100.901 91.4395L101.923 93.611ZM23.5464 80.2343C27.7296 56.8402 45.0215 39.8423 65.1547 39.8423V35.0424C42.0889 35.0424 23.2967 54.362 18.8214 79.3894L23.5464 80.2343ZM65.1547 39.8423C85.3365 39.8423 102.664 56.9233 106.793 80.4037L111.52 79.5724C107.103 54.4552 88.2767 35.0424 65.1547 35.0424V39.8423ZM100.901 91.4395C90.1052 96.52 78.0451 99.3611 65.3148 99.3611V104.161C78.7663 104.161 91.523 101.158 102.945 95.7825L100.901 91.4395ZM65.3148 99.3611C52.4522 99.3611 40.2738 96.4606 29.392 91.2802L27.3288 95.6141C38.8414 101.095 51.7234 104.161 65.3148 104.161V99.3611ZM106.793 80.4037C107.59 84.9344 105.164 89.4336 100.901 91.4395L102.945 95.7825C109.066 92.9022 112.711 86.3439 111.52 79.5724L106.793 80.4037ZM18.8214 79.3894C17.6127 86.1488 21.2291 92.7103 27.3288 95.6141L29.392 91.2802C25.1437 89.2578 22.7377 84.7567 23.5464 80.2343L18.8214 79.3894Z" fill="black"/>
<path fill-rule="evenodd" clip-rule="evenodd" d="M37.5922 87.4275C33.4275 85.7313 30.957 81.3001 32.4001 77.041C36.8506 63.9064 49.8329 54.4014 65.1549 54.4014C80.477 54.4014 93.4593 63.9064 97.9098 77.041C99.3529 81.3001 96.8824 85.7313 92.7177 87.4275C84.2114 90.8918 74.9061 92.8006 65.1549 92.8006C55.4038 92.8006 46.0985 90.8918 37.5922 87.4275Z" fill="black"/>
<ellipse cx="76.1944" cy="74.8813" rx="7.99984" ry="6.39987" fill="white"/>
<ellipse cx="53.2928" cy="74.8852" rx="7.99984" ry="6.39987" fill="white"/>
<auto-scroll xmlns="http://www.w3.org/1999/xhtml"></auto-scroll></svg>